<svg width="90" height="50" viewBox="0 0 90 50" fill="none" xmlns="http://www.w3.org/2000/svg">
<path d="M2.61328 0.683594H6.32812L12.9844 7.36328L19.6406 0.683594H23.3555V19H19.6406V5.82812L12.9844 12.2383L6.32812 5.82812V19H2.61328V0.683594ZM28.5703 0.683594H44.168V3.94141H32.2852V7.59766H42.8086V10.6562H32.2852V15.7539H44.4141V19H28.5703V0.683594ZM48.5391 0.683594H57.8555C59.2617 0.683594 60.4805 0.832031 61.5117 1.12891C62.543 1.41797 63.3984 1.83984 64.0781 2.39453C64.7578 2.94922 65.2617 3.625 65.5898 4.42188C65.9258 5.21875 66.0938 6.12109 66.0938 7.12891C66.0938 7.80859 66.0117 8.45703 65.8477 9.07422C65.6836 9.68359 65.4297 10.2461 65.0859 10.7617C64.75 11.2773 64.3242 11.7383 63.8086 12.1445C63.293 12.543 62.6875 12.875 61.9922 13.1406L65.9766 19H61.4297L57.9844 13.7969H57.8789L52.2539 13.7852V19H48.5391V0.683594ZM57.9492 10.5742C58.6523 10.5742 59.2656 10.4922 59.7891 10.3281C60.3203 10.1641 60.7617 9.93359 61.1133 9.63672C61.4727 9.33984 61.7383 8.98047 61.9102 8.55859C62.0898 8.12891 62.1797 7.65234 62.1797 7.12891C62.1797 6.10547 61.8281 5.31641 61.125 4.76172C60.4219 4.19922 59.3633 3.91797 57.9492 3.91797H52.2539V10.5742H57.9492ZM70.4766 0.683594H74.1914L85.6055 6.66016V0.683594H89.3203V19H85.6055V10.5977L74.1914 4.65625V19H70.4766V0.683594ZM8.84766 30.6836H12.7852L21.6445 49H17.7422L16.2773 45.918H5.57812L4.16016 49H0.246094L8.84766 30.6836ZM14.8125 42.8594L10.8516 34.5391L6.99609 42.8594H14.8125ZM23.8008 30.6836H27.5156V40.7734C27.5156 41.6016 27.6289 42.3398 27.8555 42.9883C28.082 43.6289 28.418 44.1719 28.8633 44.6172C29.3164 45.0625 29.875 45.4023 30.5391 45.6367C31.2031 45.8633 31.9766 45.9766 32.8594 45.9766C33.7344 45.9766 34.5039 45.8633 35.168 45.6367C35.8398 45.4023 36.3984 45.0625 36.8438 44.6172C37.2969 44.1719 37.6367 43.6289 37.8633 42.9883C38.0898 42.3398 38.2031 41.6016 38.2031 40.7734V30.6836H41.918V41.2188C41.918 42.4219 41.7148 43.5156 41.3086 44.5C40.9023 45.4844 40.3125 46.3281 39.5391 47.0312C38.7656 47.7344 37.8164 48.2773 36.6914 48.6602C35.5742 49.043 34.2969 49.2344 32.8594 49.2344C31.4219 49.2344 30.1406 49.043 29.0156 48.6602C27.8984 48.2773 26.9531 47.7344 26.1797 47.0312C25.4062 46.3281 24.8164 45.4844 24.4102 44.5C24.0039 43.5156 23.8008 42.4219 23.8008 41.2188V30.6836ZM51.9727 33.9414H45.2109V30.6836H62.4492V33.9414H55.6875V49H51.9727V33.9414ZM66.4102 30.6836H70.125V35.4648H81.5156V30.6836H85.2422V49H81.5156V38.6406H70.125V49H66.4102V30.6836Z" fill="white"/>
</svg>
